# This file uses centimeters as units for non-parametric coordinates.

mtllib spiderweb_corner.mtl
g default
v -0.000000 -2.170928 -2.379420
v 0.000000 2.170928 -2.379420
v -0.000000 -2.170928 1.962435
v 0.000000 2.170928 1.962435
v -2.890634 -2.170928 -1.402657
v -2.890634 2.170928 -1.402657
v -0.057632 -2.170928 1.887602
v -0.057632 2.170928 1.887602
v -4.511237 -2.170928 1.585920
v -4.511237 2.170928 1.585920
v -0.172263 -2.170928 1.744044
v -0.172263 2.170928 1.744044
v 2.923625 -2.170928 -1.147088
v 2.923625 2.170928 -1.147088
v -0.013777 -2.170928 2.050314
v -0.013777 2.170928 2.050314
v 4.121173 -2.170928 2.170928
v 4.121173 2.170928 2.170928
v -0.220584 -2.170928 2.141808
v -0.220584 2.170928 2.141808
v -0.359811 2.170928 2.147786
v -3.192813 2.170928 -1.142473
v -0.359811 -2.170928 2.147786
v -3.192813 -2.170928 -1.142473
v -0.186785 2.170928 2.142537
v -4.525759 2.170928 1.984413
v -0.186785 -2.170928 2.142537
v -4.525759 -2.170928 1.984413
v -0.307428 2.170928 1.780541
v 2.629974 2.170928 -1.416860
v -0.307428 -2.170928 1.780541
v 2.629974 -2.170928 -1.416860
v -0.217910 2.170928 1.743059
v 4.123848 2.170928 1.772179
v -0.217910 -2.170928 1.743059
v 4.123848 -2.170928 1.772179
v -0.398758 2.170928 1.962435
v -0.398758 2.170928 -2.379420
v -0.398758 -2.170928 1.962435
v -0.398758 -2.170928 -2.379420
vt 0.001752 -0.001746
vt 1.001746 0.001752
vt 0.998248 1.001746
vt -0.001746 0.998248
vt 0.001752 -0.001746
vt 1.001746 0.001752
vt 0.998248 1.001746
vt -0.001746 0.998248
vt 0.001752 -0.001746
vt 1.001746 0.001752
vt 0.998248 1.001746
vt -0.001746 0.998248
vt 0.001752 -0.001746
vt 1.001746 0.001752
vt 0.998248 1.001746
vt -0.001746 0.998248
vt 0.001752 -0.001746
vt 1.001746 0.001752
vt 0.998248 1.001746
vt -0.001746 0.998248
vt 0.001752 -0.001746
vt 1.001746 0.001752
vt 0.998248 1.001746
vt -0.001746 0.998248
vt 0.001752 -0.001746
vt 1.001746 0.001752
vt 0.998248 1.001746
vt -0.001746 0.998248
vt 0.001752 -0.001746
vt 1.001746 0.001752
vt 0.998248 1.001746
vt -0.001746 0.998248
vt 0.001752 -0.001746
vt 1.001746 0.001752
vt 0.998248 1.001746
vt -0.001746 0.998248
vt 0.001752 -0.001746
vt 1.001746 0.001752
vt 0.998248 1.001746
vt -0.001746 0.998248
vn 1.000000 -0.000000 -0.000000
vn 1.000000 -0.000000 -0.000000
vn 1.000000 -0.000000 -0.000000
vn 1.000000 -0.000000 -0.000000
vn 0.757800 0.000000 -0.652487
vn 0.757800 0.000000 -0.652487
vn 0.757800 0.000000 -0.652487
vn 0.757800 0.000000 -0.652487
vn 0.036419 0.000000 -0.999337
vn 0.036419 0.000000 -0.999337
vn 0.036419 0.000000 -0.999337
vn 0.036419 0.000000 -0.999337
vn 0.736414 0.000000 0.676532
vn 0.736414 0.000000 0.676532
vn 0.736414 0.000000 0.676532
vn 0.736414 0.000000 0.676532
vn -0.006707 0.000000 0.999978
vn -0.006707 0.000000 0.999978
vn -0.006707 0.000000 0.999978
vn -0.006707 0.000000 0.999978
vn -0.757800 0.000000 0.652487
vn -0.757800 0.000000 0.652487
vn -0.757800 0.000000 0.652487
vn -0.757800 0.000000 0.652487
vn -0.036419 0.000000 0.999337
vn -0.036419 0.000000 0.999337
vn -0.036419 0.000000 0.999337
vn -0.036419 0.000000 0.999337
vn -0.736414 0.000000 -0.676532
vn -0.736414 0.000000 -0.676532
vn -0.736414 0.000000 -0.676532
vn -0.736414 0.000000 -0.676532
vn 0.006707 0.000000 -0.999978
vn 0.006707 0.000000 -0.999978
vn 0.006707 0.000000 -0.999978
vn 0.006707 0.000000 -0.999978
vn -1.000000 0.000000 0.000000
vn -1.000000 0.000000 0.000000
vn -1.000000 0.000000 0.000000
vn -1.000000 0.000000 0.000000
s off
g spiderweb_corner
usemtl initialShadingGroup
f 1/1/1 2/2/2 4/3/3 3/4/4
f 5/5/5 6/6/6 8/7/7 7/8/8
f 9/9/9 10/10/10 12/11/11 11/12/12
f 13/13/13 14/14/14 16/15/15 15/16/16
f 17/17/17 18/18/18 20/19/19 19/20/20
f 21/21/21 22/22/22 24/23/23 23/24/24
f 25/25/25 26/26/26 28/27/27 27/28/28
f 29/29/29 30/30/30 32/31/31 31/32/32
f 33/33/33 34/34/34 36/35/35 35/36/36
f 37/37/37 38/38/38 40/39/39 39/40/40
