# Exported from Wings 3D 2.1.5
mtllib SwordSwipePH.mtl
o Tube1_cut2
#40 vertices, 76 faces
v 0.94888208 -1.36565540 7.1404660e-3
v 0.80757331 -1.16096957 0.31021356
v 0.63538808 -0.91155917 0.55893922
v 0.43894336 -0.62700890 0.74375907
v 0.22578843 -0.31825386 0.85757056
v 4.1146905e-3 2.8406552e-3 0.89600000
v -0.21755904 0.32393517 0.85757056
v -0.43071398 0.63269021 0.74375907
v -0.62715870 0.91724048 0.55893922
v -0.79934393 1.16665088 0.31021356
v -0.94065270 1.37133671 7.1404660e-3
v 0.94065270 -1.37133671 7.1404660e-3
v 0.79934393 -1.16665088 0.31021356
v 0.62715870 -0.91724048 0.55893922
v 0.43071398 -0.63269021 0.74375907
v 0.21755904 -0.32393517 0.85757056
v -4.1146905e-3 -2.8406552e-3 0.89600000
v -0.22578843 0.31825386 0.85757056
v -0.43894336 0.62700890 0.74375907
v -0.63538808 0.91155917 0.55893922
v -0.80757331 1.16096957 0.31021356
v -0.94888208 1.36565540 7.1404660e-3
v 0.64688159 -0.92820753 2.7370850e-2
v 0.50913340 -0.72867921 0.22635138
v 0.35197763 -0.50103899 0.37420725
v 0.18145368 -0.25403496 0.46525645
v 4.1146905e-3 2.8406552e-3 0.49600000
v -0.17322430 0.25971627 0.46525645
v -0.34374825 0.50672030 0.37420725
v -0.50090402 0.73436052 0.22635138
v -0.63865221 0.93388884 2.7370850e-2
v 0.63865221 -0.93388884 2.7370850e-2
v 0.50090402 -0.73436052 0.22635138
v 0.34374825 -0.50672030 0.37420725
v 0.17322430 -0.25971627 0.46525645
v -4.1146905e-3 -2.8406552e-3 0.49600000
v -0.18145368 0.25403496 0.46525645
v -0.35197763 0.50103899 0.37420725
v -0.50913340 0.72867921 0.22635138
v -0.64688159 0.92820753 2.7370850e-2
vn 0.86276515 -0.33382914 -0.37972939
vn 0.86668693 -7.7771072e-3 0.49879182
vn 0.80595736 8.0189711e-2 0.58651714
vn 0.73667149 0.18055033 0.65170292
vn 0.66149193 0.28944795 0.69184413
vn 0.58330781 0.40269769 0.70539816
vn 0.40677283 0.47014559 0.78326176
vn 0.41767658 0.64228019 0.64266822
vn 0.46132974 0.74205902 0.48633660
vn 0.29992869 0.81317249 0.49879182
vn -6.3439664e-3 0.92507586 -0.37972939
vn -0.31337433 -0.90676954 -0.28207362
vn -0.17446415 -0.80664483 0.56470026
vn -0.36065827 -0.72520567 0.58651714
vn -0.42994414 -0.62484505 0.65170292
vn -0.50512369 -0.51594743 0.69184413
vn -0.58330781 -0.40269769 0.70539816
vn -0.66149193 -0.28944795 0.69184413
vn -0.77907991 -0.28179774 0.56002190
vn -0.79480453 -9.6010162e-2 0.59922267
vn -0.72842120 0.26490961 0.63184291
vn -0.95897290 2.8380321e-2 -0.28207362
vn 0.41643078 0.67054165 -0.61397011
vn 0.36065827 0.72520567 -0.58651714
vn 0.42994414 0.62484505 -0.65170292
vn 0.50512369 0.51594743 -0.69184413
vn 0.58330781 0.40269769 -0.70539816
vn 0.74701602 0.38465579 -0.54222411
vn 0.66891646 9.0430404e-2 -0.73781645
vn 0.80595736 8.0189711e-2 -0.58651714
vn 0.77461129 0.15171699 -0.61397011
vn -0.58710170 -0.15801198 -0.79394194
vn -0.80595736 -8.0189711e-2 -0.58651714
vn -0.73667149 -0.18055033 -0.65170292
vn -0.66149193 -0.28944795 -0.69184413
vn -0.58330781 -0.40269769 -0.70539816
vn -0.50512369 -0.51594743 -0.69184413
vn -0.42994414 -0.62484505 -0.65170292
vn -0.24321830 -0.70705441 -0.66401726
vn -0.49815821 -0.55215943 -0.66854945
g Tube1_cut2_default
usemtl default
s 1
f 1//1 13//13 12//12
f 1//1 23//23 2//2
f 2//2 13//13 1//1
f 2//2 23//23 3//3
f 3//3 13//13 2//2
f 3//3 15//15 14//14
f 3//3 23//23 24//24
f 3//3 25//25 4//4
f 4//4 15//15 3//3
f 4//4 25//25 5//5
f 5//5 15//15 4//4
f 5//5 17//17 16//16
f 5//5 25//25 26//26
f 5//5 27//27 6//6
f 6//6 17//17 5//5
f 6//6 27//27 7//7
f 7//7 17//17 6//6
f 7//7 19//19 18//18
f 7//7 27//27 28//28
f 7//7 28//28 8//8
f 8//8 19//19 7//7
f 8//8 20//20 19//19
f 8//8 28//28 29//29
f 8//8 29//29 9//9
f 9//9 20//20 8//8
f 9//9 21//21 20//20
f 9//9 29//29 30//30
f 9//9 31//31 10//10
f 10//10 21//21 9//9
f 10//10 31//31 11//11
f 11//11 21//21 10//10
f 11//11 40//40 22//22
f 12//12 32//32 1//1
f 13//13 32//32 12//12
f 13//13 33//33 32//32
f 14//14 13//13 3//3
f 14//14 33//33 13//13
f 15//15 33//33 14//14
f 15//15 35//35 34//34
f 16//16 15//15 5//5
f 16//16 35//35 15//15
f 17//17 35//35 16//16
f 17//17 37//37 36//36
f 18//18 17//17 7//7
f 18//18 37//37 17//17
f 19//19 37//37 18//18
f 19//19 39//39 38//38
f 20//20 39//39 19//19
f 20//20 40//40 39//39
f 21//21 40//40 20//20
f 22//22 21//21 11//11
f 22//22 40//40 21//21
f 23//23 1//1 32//32
f 23//23 33//33 24//24
f 24//24 25//25 3//3
f 24//24 33//33 25//25
f 25//25 33//33 34//34
f 25//25 35//35 26//26
f 26//26 27//27 5//5
f 26//26 35//35 27//27
f 27//27 35//35 36//36
f 27//27 37//37 28//28
f 28//28 37//37 29//29
f 29//29 37//37 38//38
f 29//29 39//39 30//30
f 30//30 31//31 9//9
f 30//30 39//39 31//31
f 31//31 39//39 40//40
f 32//32 33//33 23//23
f 34//34 33//33 15//15
f 34//34 35//35 25//25
f 36//36 35//35 17//17
f 36//36 37//37 27//27
f 38//38 37//37 19//19
f 38//38 39//39 29//29
f 40//40 11//11 31//31
